<?xml version="1.0" encoding="UTF-8"?><svg id="Layer_2" xmlns="http://www.w3.org/2000/svg" viewBox="0 0 415.08 474.45"><defs><style>.cls-1{font-size:226.89px;}.cls-1,.cls-2,.cls-3{fill:#556b2f;}.cls-1,.cls-3{font-family:MyriadPro-Regular, 'Myriad Pro';}.cls-2{stroke-width:0px;}.cls-3{font-size:155.23px;}</style></defs><g id="Layer_1-2"><path class="cls-2" d="M248.16,333.26c-92.45-.25-166.9-75.36-166.29-167.86C82.47,74.5,156.89-.71,249.94,0c90.53.69,166.24,74.37,165.13,168.74-1.08,91.76-75.25,164.62-166.91,164.52ZM109.41,166.55c.17,77.15,61.64,138.52,137.73,139.23,77.82.72,140.12-61.4,140.48-138.36.37-77.86-62.08-139.68-138.78-139.83-77.08-.15-139.16,61.69-139.44,138.96Z"/><path class="cls-2" d="M126.24,293.72c8.94,8.73,18.58,16.33,29.1,23.08-1.08,1.63-2.04,3.09-3.01,4.54-16.56,24.71-33.12,49.42-49.68,74.13-14.56,21.72-28.95,43.56-43.75,65.11-12.23,17.81-38.15,18.55-51.69,1.78-10.08-12.48-9.57-30.22,1.37-42.23,9.21-10.11,18.62-20.03,27.93-30.04,14.38-15.45,28.75-30.92,43.13-46.37,12.8-13.75,25.62-27.49,38.43-41.24,2.67-2.86,5.33-5.72,8.16-8.77Z"/><text class="cls-1" transform="translate(157.27 276.54)"><tspan x="0" y="0">M</tspan></text><text class="cls-3" transform="translate(195 142.56)"><tspan x="0" y="0">O</tspan></text></g></svg>